<mxfile host="app.diagrams.net" agent="Mozilla/5.0 (Macintosh; Intel Mac OS X 10_15_7) AppleWebKit/605.1.15 (KHTML, like Gecko) Version/18.0.1 Safari/605.1.15" version="27.1.3">
  <diagram name="Page-1" id="zbfmEVOwrJDWZlcbJ2yz">
    <mxGraphModel dx="1868" dy="697" grid="1" gridSize="10" guides="1" tooltips="1" connect="1" arrows="1" fold="1" page="1" pageScale="1" pageWidth="850" pageHeight="1100" math="0" shadow="0">
      <root>
        <mxCell id="0" />
        <mxCell id="1" parent="0" />
        <mxCell id="kU76yeBBNpI0ltP20Z3--4" value="&lt;h2&gt;Environment&lt;/h2&gt;" style="shape=ext;double=1;rounded=1;whiteSpace=wrap;html=1;" vertex="1" parent="1">
          <mxGeometry x="275" y="360" width="270" height="80" as="geometry" />
        </mxCell>
        <mxCell id="kU76yeBBNpI0ltP20Z3--6" value="" style="edgeStyle=elbowEdgeStyle;elbow=horizontal;endArrow=classic;html=1;curved=0;rounded=0;endSize=8;startSize=8;exitX=0.6;exitY=0;exitDx=0;exitDy=0;exitPerimeter=0;" edge="1" parent="1">
          <mxGeometry width="50" height="50" relative="1" as="geometry">
            <mxPoint x="433.5" y="360" as="sourcePoint" />
            <mxPoint x="436.5" y="290" as="targetPoint" />
            <Array as="points">
              <mxPoint x="436.5" y="320" />
            </Array>
          </mxGeometry>
        </mxCell>
        <mxCell id="kU76yeBBNpI0ltP20Z3--7" value="" style="edgeStyle=elbowEdgeStyle;elbow=horizontal;endArrow=classic;html=1;curved=0;rounded=0;endSize=8;startSize=8;" edge="1" parent="1">
          <mxGeometry width="50" height="50" relative="1" as="geometry">
            <mxPoint x="275" y="410" as="sourcePoint" />
            <mxPoint x="180" y="410" as="targetPoint" />
            <Array as="points" />
          </mxGeometry>
        </mxCell>
        <mxCell id="kU76yeBBNpI0ltP20Z3--8" value="" style="endArrow=none;dashed=1;html=1;dashPattern=1 3;strokeWidth=2;rounded=0;" edge="1" parent="1">
          <mxGeometry width="50" height="50" relative="1" as="geometry">
            <mxPoint x="170" y="460" as="sourcePoint" />
            <mxPoint x="170" y="360" as="targetPoint" />
          </mxGeometry>
        </mxCell>
        <mxCell id="kU76yeBBNpI0ltP20Z3--9" value="" style="endArrow=none;dashed=1;html=1;dashPattern=1 3;strokeWidth=2;rounded=0;" edge="1" parent="1">
          <mxGeometry width="50" height="50" relative="1" as="geometry">
            <mxPoint x="160" y="460" as="sourcePoint" />
            <mxPoint x="160" y="360" as="targetPoint" />
          </mxGeometry>
        </mxCell>
        <mxCell id="kU76yeBBNpI0ltP20Z3--11" value="" style="edgeStyle=segmentEdgeStyle;endArrow=classic;html=1;curved=0;rounded=0;endSize=8;startSize=8;" edge="1" parent="1">
          <mxGeometry width="50" height="50" relative="1" as="geometry">
            <mxPoint x="160" y="410" as="sourcePoint" />
            <mxPoint x="340" y="110" as="targetPoint" />
            <Array as="points">
              <mxPoint x="80" y="410" />
              <mxPoint x="80" y="110" />
              <mxPoint x="340" y="110" />
            </Array>
          </mxGeometry>
        </mxCell>
        <mxCell id="kU76yeBBNpI0ltP20Z3--12" value="&lt;h3&gt;&lt;font style=&quot;font-size: 16px;&quot;&gt;Agent&lt;/font&gt;&lt;/h3&gt;" style="shape=ext;double=1;rounded=1;whiteSpace=wrap;html=1;" vertex="1" parent="1">
          <mxGeometry x="350" y="90" width="170" height="50" as="geometry" />
        </mxCell>
        <mxCell id="kU76yeBBNpI0ltP20Z3--13" value="" style="edgeStyle=segmentEdgeStyle;endArrow=classic;html=1;curved=0;rounded=0;endSize=8;startSize=8;exitX=1;exitY=0.5;exitDx=0;exitDy=0;" edge="1" parent="1" source="kU76yeBBNpI0ltP20Z3--12">
          <mxGeometry width="50" height="50" relative="1" as="geometry">
            <mxPoint x="680" y="480" as="sourcePoint" />
            <mxPoint x="550" y="410" as="targetPoint" />
            <Array as="points">
              <mxPoint x="520" y="110" />
              <mxPoint x="680" y="110" />
              <mxPoint x="680" y="410" />
              <mxPoint x="560" y="410" />
            </Array>
          </mxGeometry>
        </mxCell>
        <mxCell id="kU76yeBBNpI0ltP20Z3--14" value="" style="endArrow=none;dashed=1;html=1;dashPattern=1 3;strokeWidth=2;rounded=0;" edge="1" parent="1">
          <mxGeometry width="50" height="50" relative="1" as="geometry">
            <mxPoint x="397.13" y="280" as="sourcePoint" />
            <mxPoint x="473" y="280" as="targetPoint" />
          </mxGeometry>
        </mxCell>
        <mxCell id="kU76yeBBNpI0ltP20Z3--15" value="" style="endArrow=none;dashed=1;html=1;dashPattern=1 3;strokeWidth=2;rounded=0;" edge="1" parent="1">
          <mxGeometry width="50" height="50" relative="1" as="geometry">
            <mxPoint x="395" y="270" as="sourcePoint" />
            <mxPoint x="475" y="270" as="targetPoint" />
          </mxGeometry>
        </mxCell>
        <mxCell id="kU76yeBBNpI0ltP20Z3--16" value="" style="edgeStyle=elbowEdgeStyle;elbow=horizontal;endArrow=classic;html=1;curved=0;rounded=0;endSize=8;startSize=8;" edge="1" parent="1">
          <mxGeometry width="50" height="50" relative="1" as="geometry">
            <mxPoint x="434.5" y="260" as="sourcePoint" />
            <mxPoint x="434.5" y="160" as="targetPoint" />
            <Array as="points">
              <mxPoint x="434.5" y="190" />
            </Array>
          </mxGeometry>
        </mxCell>
        <mxCell id="kU76yeBBNpI0ltP20Z3--18" value="" style="edgeStyle=elbowEdgeStyle;elbow=horizontal;endArrow=classic;html=1;curved=0;rounded=0;endSize=8;startSize=8;" edge="1" parent="1">
          <mxGeometry width="50" height="50" relative="1" as="geometry">
            <mxPoint x="434.5" y="260" as="sourcePoint" />
            <mxPoint x="434.5" y="160" as="targetPoint" />
            <Array as="points">
              <mxPoint x="434.5" y="190" />
            </Array>
          </mxGeometry>
        </mxCell>
        <mxCell id="kU76yeBBNpI0ltP20Z3--23" value="&lt;pre&gt;&lt;font style=&quot;font-size: 14px;&quot;&gt;A&lt;sub&gt;t&lt;/sub&gt; (action)&lt;/font&gt;&lt;/pre&gt;" style="text;html=1;align=center;verticalAlign=middle;whiteSpace=wrap;rounded=0;" vertex="1" parent="1">
          <mxGeometry x="700" y="230" width="80" height="30" as="geometry" />
        </mxCell>
        <mxCell id="kU76yeBBNpI0ltP20Z3--24" value="&lt;pre&gt;&lt;font&gt;&lt;span style=&quot;font-size: 14px;&quot;&gt;R&lt;sub&gt;t&lt;/sub&gt;&lt;/span&gt;&lt;span style=&quot;font-size: 14px;&quot;&gt; (reward)&lt;/span&gt;&lt;/font&gt;&lt;/pre&gt;" style="text;html=1;align=center;verticalAlign=middle;whiteSpace=wrap;rounded=0;" vertex="1" parent="1">
          <mxGeometry x="450" y="210" width="80" height="30" as="geometry" />
        </mxCell>
        <mxCell id="kU76yeBBNpI0ltP20Z3--25" value="&lt;pre&gt;&lt;font&gt;&lt;span style=&quot;font-size: 14px;&quot;&gt;S&lt;sub&gt;t&lt;/sub&gt;&lt;/span&gt;&lt;span style=&quot;font-size: 14px;&quot;&gt; (state)&lt;/span&gt;&lt;/font&gt;&lt;/pre&gt;" style="text;html=1;align=center;verticalAlign=middle;whiteSpace=wrap;rounded=0;" vertex="1" parent="1">
          <mxGeometry x="-10" y="240" width="80" height="30" as="geometry" />
        </mxCell>
        <mxCell id="kU76yeBBNpI0ltP20Z3--27" value="&lt;pre&gt;&lt;font&gt;&lt;span style=&quot;font-size: 14px;&quot;&gt;R&lt;sub&gt;t+1&lt;/sub&gt;&lt;/span&gt;&lt;span style=&quot;font-size: 14px;&quot;&gt; &lt;/span&gt;&lt;/font&gt;&lt;/pre&gt;" style="text;html=1;align=center;verticalAlign=middle;whiteSpace=wrap;rounded=0;" vertex="1" parent="1">
          <mxGeometry x="425" y="310" width="80" height="30" as="geometry" />
        </mxCell>
        <mxCell id="kU76yeBBNpI0ltP20Z3--28" value="&lt;pre&gt;&lt;font&gt;&lt;span style=&quot;font-size: 14px;&quot;&gt;S&lt;sub&gt;t+1&lt;/sub&gt;&lt;/span&gt;&lt;span style=&quot;font-size: 14px;&quot;&gt; &lt;/span&gt;&lt;/font&gt;&lt;/pre&gt;" style="text;html=1;align=center;verticalAlign=middle;whiteSpace=wrap;rounded=0;" vertex="1" parent="1">
          <mxGeometry x="170" y="370" width="80" height="30" as="geometry" />
        </mxCell>
      </root>
    </mxGraphModel>
  </diagram>
</mxfile>
